<svg xmlns="http://www.w3.org/2000/svg" xmlns:xlink="http://www.w3.org/1999/xlink" width="782" zoomAndPan="magnify" viewBox="0 0 586.5 67.499998" height="90" preserveAspectRatio="xMidYMid meet" version="1.0"><defs><clipPath id="811433941f"><path d="M 7 11 L 584.09375 11 L 584.09375 63 L 7 63 Z M 7 11 " clip-rule="nonzero"/></clipPath><clipPath id="4adeb866e6"><path d="M 1.90625 18.042969 L 39.910156 18.042969 L 39.910156 56.042969 L 1.90625 56.042969 Z M 1.90625 18.042969 " clip-rule="nonzero"/></clipPath><clipPath id="515cab1e1d"><path d="M 546.359375 18.042969 L 584.09375 18.042969 L 584.09375 56.042969 L 546.359375 56.042969 Z M 546.359375 18.042969 " clip-rule="nonzero"/></clipPath><clipPath id="a7c1df8e62"><path d="M 11.691406 21.28125 L 30.320312 21.28125 L 30.320312 51.085938 L 11.691406 51.085938 Z M 11.691406 21.28125 " clip-rule="nonzero"/></clipPath><clipPath id="9f2d349dac"><path d="M 555.660156 24.847656 L 575.03125 24.847656 L 575.03125 48.691406 L 555.660156 48.691406 Z M 555.660156 24.847656 " clip-rule="nonzero"/></clipPath></defs><g clip-path="url(#811433941f)"><path stroke-linecap="butt" transform="matrix(4.473502, -0.00385661, 0.00385421, 4.470717, 33.174365, 37.157753)" fill="none" stroke-linejoin="miter" d="M 0.000316868 -0.000335851 L 121.259483 0.000291588 " stroke="#00602a" stroke-width="1" stroke-opacity="1" stroke-miterlimit="4"/></g><g clip-path="url(#4adeb866e6)"><path fill="#00602a" d="M 20.910156 18.042969 C 10.414062 18.042969 1.90625 26.546875 1.90625 37.042969 C 1.90625 47.535156 10.414062 56.042969 20.910156 56.042969 C 31.402344 56.042969 39.910156 47.535156 39.910156 37.042969 C 39.910156 26.546875 31.402344 18.042969 20.910156 18.042969 " fill-opacity="1" fill-rule="nonzero"/></g><g clip-path="url(#515cab1e1d)"><path fill="#00602a" d="M 565.359375 18.042969 C 554.867188 18.042969 546.359375 26.546875 546.359375 37.042969 C 546.359375 47.535156 554.867188 56.042969 565.359375 56.042969 C 575.851562 56.042969 584.359375 47.535156 584.359375 37.042969 C 584.359375 26.546875 575.851562 18.042969 565.359375 18.042969 " fill-opacity="1" fill-rule="nonzero"/></g><g clip-path="url(#a7c1df8e62)"><path fill="#ffffff" d="M 21.003906 21.28125 C 19.511719 21.28125 18.332031 22.511719 18.226562 24.03125 L 17.054688 24.03125 C 16.785156 24.03125 16.535156 24.171875 16.386719 24.347656 C 16.242188 24.523438 16.167969 24.714844 16.121094 24.898438 L 15.914062 25.660156 L 13.085938 25.660156 C 12.320312 25.660156 11.710938 26.316406 11.710938 27.09375 L 11.710938 49.652344 C 11.710938 50.429688 12.320312 51.085938 13.085938 51.085938 L 28.925781 51.085938 C 29.6875 51.085938 30.300781 50.429688 30.300781 49.652344 L 30.300781 27.09375 C 30.300781 26.316406 29.6875 25.660156 28.925781 25.660156 L 26.09375 25.660156 L 25.890625 24.898438 C 25.839844 24.714844 25.765625 24.523438 25.621094 24.347656 C 25.472656 24.171875 25.222656 24.03125 24.953125 24.03125 L 23.785156 24.03125 C 23.675781 22.511719 22.492188 21.28125 21.003906 21.28125 Z M 21.003906 22.160156 C 22.078125 22.15625 22.957031 23.074219 22.957031 24.242188 C 22.957031 24.300781 22.953125 24.363281 22.945312 24.425781 C 22.933594 24.550781 22.976562 24.671875 23.058594 24.765625 C 23.140625 24.855469 23.257812 24.90625 23.378906 24.90625 L 24.953125 24.90625 C 24.953125 24.910156 24.957031 24.910156 24.957031 24.914062 C 24.980469 24.941406 25.023438 25.023438 25.050781 25.128906 L 25.339844 26.191406 C 25.34375 26.207031 25.347656 26.222656 25.351562 26.238281 L 25.816406 27.949219 C 25.777344 27.976562 25.703125 28.007812 25.644531 28.007812 L 16.363281 28.007812 C 16.304688 28.007812 16.226562 27.976562 16.191406 27.949219 L 16.664062 26.210938 C 16.664062 26.207031 16.664062 26.203125 16.667969 26.195312 L 16.957031 25.128906 C 16.984375 25.023438 17.027344 24.941406 17.050781 24.914062 C 17.050781 24.910156 17.054688 24.910156 17.054688 24.90625 L 18.628906 24.90625 C 18.753906 24.90625 18.871094 24.855469 18.953125 24.761719 C 19.035156 24.671875 19.074219 24.546875 19.0625 24.425781 C 19.054688 24.363281 19.050781 24.300781 19.050781 24.242188 C 19.050781 23.074219 19.929688 22.15625 21.003906 22.160156 Z M 21.003906 23.117188 C 20.332031 23.117188 19.796875 23.695312 19.796875 24.375 C 19.796875 25.050781 20.332031 25.632812 21.003906 25.632812 C 21.675781 25.632812 22.210938 25.050781 22.210938 24.375 C 22.210938 23.695312 21.675781 23.117188 21.003906 23.117188 Z M 21.003906 23.996094 C 21.1875 23.996094 21.34375 24.148438 21.34375 24.375 C 21.34375 24.597656 21.1875 24.75 21.003906 24.75 C 20.820312 24.75 20.664062 24.597656 20.664062 24.375 C 20.664062 24.148438 20.820312 23.996094 21.003906 23.996094 Z M 13.085938 26.539062 L 15.675781 26.539062 L 15.335938 27.785156 C 15.246094 28.121094 15.417969 28.453125 15.628906 28.625 C 15.835938 28.796875 16.089844 28.886719 16.363281 28.886719 L 25.644531 28.886719 C 25.917969 28.886719 26.171875 28.796875 26.378906 28.625 C 26.589844 28.453125 26.761719 28.121094 26.671875 27.785156 L 26.332031 26.539062 L 28.925781 26.539062 C 29.203125 26.539062 29.433594 26.765625 29.433594 27.09375 L 29.433594 49.652344 C 29.433594 49.976562 29.203125 50.207031 28.925781 50.207031 L 13.085938 50.207031 C 12.804688 50.207031 12.578125 49.976562 12.578125 49.652344 L 12.578125 27.09375 C 12.578125 26.765625 12.804688 26.539062 13.085938 26.539062 Z M 17.425781 31.382812 C 17.308594 31.378906 17.195312 31.429688 17.113281 31.511719 L 16.019531 32.59375 L 15.511719 32.09375 C 15.402344 31.984375 15.238281 31.9375 15.085938 31.980469 C 14.9375 32.023438 14.820312 32.148438 14.78125 32.300781 C 14.746094 32.457031 14.792969 32.617188 14.910156 32.726562 L 15.71875 33.519531 C 15.796875 33.597656 15.898438 33.640625 16.007812 33.644531 C 16.125 33.644531 16.238281 33.601562 16.320312 33.519531 L 17.71875 32.144531 C 17.847656 32.019531 17.890625 31.828125 17.828125 31.660156 C 17.761719 31.492188 17.601562 31.382812 17.425781 31.382812 Z M 19.117188 32.765625 C 18.960938 32.761719 18.8125 32.84375 18.734375 32.984375 C 18.652344 33.121094 18.65625 33.292969 18.738281 33.429688 C 18.816406 33.566406 18.964844 33.648438 19.125 33.644531 L 26.796875 33.644531 C 26.953125 33.648438 27.101562 33.566406 27.183594 33.429688 C 27.265625 33.289062 27.265625 33.117188 27.183594 32.980469 C 27.101562 32.84375 26.953125 32.757812 26.796875 32.765625 L 19.125 32.765625 C 19.121094 32.765625 19.121094 32.765625 19.117188 32.765625 Z M 17.425781 35.65625 C 17.308594 35.65625 17.195312 35.703125 17.113281 35.789062 L 16.019531 36.867188 L 15.511719 36.371094 C 15.402344 36.257812 15.238281 36.214844 15.085938 36.257812 C 14.9375 36.300781 14.820312 36.421875 14.78125 36.578125 C 14.746094 36.730469 14.792969 36.894531 14.910156 37.003906 L 15.71875 37.792969 C 15.796875 37.871094 15.898438 37.914062 16.007812 37.917969 C 16.125 37.921875 16.238281 37.878906 16.320312 37.792969 L 17.71875 36.417969 C 17.847656 36.296875 17.890625 36.105469 17.828125 35.9375 C 17.761719 35.769531 17.601562 35.660156 17.425781 35.65625 Z M 19.117188 37.039062 C 18.960938 37.035156 18.8125 37.121094 18.734375 37.257812 C 18.652344 37.398438 18.65625 37.566406 18.738281 37.707031 C 18.816406 37.84375 18.964844 37.925781 19.125 37.917969 L 26.796875 37.917969 C 26.953125 37.925781 27.101562 37.84375 27.183594 37.703125 C 27.265625 37.566406 27.265625 37.394531 27.183594 37.253906 C 27.101562 37.117188 26.953125 37.035156 26.796875 37.039062 L 19.125 37.039062 C 19.121094 37.039062 19.121094 37.039062 19.117188 37.039062 Z M 17.425781 39.933594 C 17.308594 39.929688 17.195312 39.980469 17.113281 40.0625 L 16.019531 41.140625 L 15.511719 40.644531 C 15.402344 40.53125 15.238281 40.488281 15.085938 40.53125 C 14.9375 40.574219 14.820312 40.699219 14.78125 40.851562 C 14.746094 41.007812 14.792969 41.167969 14.910156 41.277344 L 15.71875 42.070312 C 15.796875 42.148438 15.898438 42.191406 16.007812 42.195312 C 16.125 42.195312 16.238281 42.152344 16.320312 42.070312 L 17.71875 40.695312 C 17.847656 40.570312 17.890625 40.378906 17.828125 40.210938 C 17.761719 40.042969 17.601562 39.933594 17.425781 39.933594 Z M 19.117188 41.316406 C 18.960938 41.3125 18.8125 41.394531 18.734375 41.535156 C 18.652344 41.671875 18.65625 41.84375 18.738281 41.980469 C 18.816406 42.117188 18.964844 42.199219 19.125 42.195312 L 26.796875 42.195312 C 26.953125 42.199219 27.101562 42.117188 27.183594 41.980469 C 27.265625 41.839844 27.265625 41.667969 27.183594 41.53125 C 27.101562 41.394531 26.953125 41.308594 26.796875 41.316406 L 19.125 41.316406 C 19.121094 41.316406 19.121094 41.316406 19.117188 41.316406 Z M 17.425781 44.207031 C 17.308594 44.207031 17.195312 44.253906 17.113281 44.339844 L 16.019531 45.417969 L 15.511719 44.921875 C 15.402344 44.808594 15.238281 44.765625 15.085938 44.808594 C 14.9375 44.851562 14.820312 44.972656 14.78125 45.128906 C 14.746094 45.28125 14.792969 45.445312 14.910156 45.554688 L 15.71875 46.34375 C 15.796875 46.421875 15.898438 46.464844 16.007812 46.46875 C 16.125 46.472656 16.238281 46.425781 16.320312 46.34375 L 17.71875 44.96875 C 17.847656 44.847656 17.890625 44.65625 17.828125 44.488281 C 17.761719 44.320312 17.601562 44.210938 17.425781 44.207031 Z M 19.125 45.589844 C 18.882812 45.589844 18.691406 45.785156 18.691406 46.03125 C 18.691406 46.273438 18.882812 46.46875 19.125 46.46875 L 26.796875 46.46875 C 27.035156 46.46875 27.230469 46.273438 27.230469 46.03125 C 27.230469 45.785156 27.035156 45.589844 26.796875 45.589844 Z M 19.125 45.589844 " fill-opacity="1" fill-rule="nonzero"/></g><g clip-path="url(#9f2d349dac)"><path fill="#ffffff" d="M 569.703125 48.691406 L 561.003906 48.691406 C 560.117188 48.691406 559.269531 48.34375 558.632812 47.710938 C 556.71875 45.832031 555.664062 43.308594 555.664062 40.601562 C 555.664062 38.550781 556.269531 36.597656 557.417969 34.929688 L 556.710938 31.78125 C 556.316406 30.011719 556.710938 28.210938 557.792969 26.824219 C 558.773438 25.566406 560.210938 24.847656 561.734375 24.847656 L 568.957031 24.847656 C 570.480469 24.847656 571.917969 25.566406 572.898438 26.824219 C 573.980469 28.210938 574.375 30.019531 573.980469 31.78125 L 573.273438 34.929688 C 574.421875 36.597656 575.027344 38.550781 575.027344 40.601562 C 575.027344 43.308594 573.972656 45.839844 572.058594 47.710938 C 571.4375 48.34375 570.589844 48.691406 569.703125 48.691406 Z M 561.742188 25.558594 C 560.4375 25.558594 559.199219 26.183594 558.351562 27.265625 C 557.402344 28.480469 557.054688 30.066406 557.402344 31.613281 L 558.140625 34.921875 C 558.164062 35.027344 558.140625 35.128906 558.085938 35.210938 C 556.960938 36.78125 556.371094 38.644531 556.371094 40.59375 C 556.371094 43.097656 557.347656 45.445312 559.121094 47.191406 C 559.621094 47.6875 560.296875 47.960938 561.003906 47.960938 L 569.703125 47.960938 C 570.410156 47.960938 571.078125 47.6875 571.585938 47.191406 C 573.363281 45.445312 574.335938 43.109375 574.335938 40.59375 C 574.335938 38.644531 573.746094 36.78125 572.625 35.210938 C 572.5625 35.121094 572.546875 35.019531 572.570312 34.921875 L 573.308594 31.613281 C 573.652344 30.058594 573.308594 28.472656 572.355469 27.265625 C 571.507812 26.183594 570.277344 25.558594 568.964844 25.558594 Z M 571.3125 33.632812 C 571.234375 33.632812 571.148438 33.601562 571.085938 33.550781 C 569.476562 32.191406 567.441406 31.445312 565.355469 31.445312 C 563.265625 31.445312 561.230469 32.191406 559.621094 33.550781 C 559.527344 33.632812 559.402344 33.65625 559.285156 33.617188 C 559.167969 33.578125 559.082031 33.480469 559.058594 33.351562 L 558.609375 31.339844 C 558.351562 30.179688 558.617188 28.945312 559.316406 28.050781 C 559.9375 27.257812 560.800781 26.816406 561.742188 26.816406 L 568.964844 26.816406 C 569.90625 26.816406 570.769531 27.257812 571.390625 28.050781 C 572.097656 28.945312 572.355469 30.179688 572.097656 31.339844 L 571.648438 33.351562 C 571.625 33.472656 571.53125 33.578125 571.421875 33.617188 C 571.382812 33.625 571.351562 33.632812 571.3125 33.632812 Z M 565.355469 30.71875 C 567.417969 30.71875 569.4375 31.398438 571.09375 32.640625 L 571.421875 31.179688 C 571.632812 30.238281 571.421875 29.226562 570.847656 28.5 C 570.363281 27.875 569.695312 27.539062 568.972656 27.539062 L 561.75 27.539062 C 561.027344 27.539062 560.359375 27.882812 559.875 28.5 C 559.300781 29.226562 559.089844 30.226562 559.300781 31.179688 L 559.628906 32.640625 C 561.269531 31.398438 563.289062 30.71875 565.355469 30.71875 Z M 559.589844 28.273438 Z M 559.589844 28.273438 " fill-opacity="1" fill-rule="nonzero"/></g><path fill="#ffffff" d="M 559.097656 36.820312 C 559.027344 36.820312 558.957031 36.796875 558.894531 36.757812 C 558.734375 36.644531 558.695312 36.417969 558.804688 36.25 C 559.582031 35.105469 561.035156 33.601562 563.5 32.917969 C 563.691406 32.871094 563.886719 32.984375 563.933594 33.175781 C 563.980469 33.367188 563.871094 33.566406 563.683594 33.617188 C 561.867188 34.113281 560.421875 35.136719 559.378906 36.667969 C 559.316406 36.765625 559.207031 36.820312 559.097656 36.820312 Z M 559.097656 36.820312 " fill-opacity="1" fill-rule="nonzero"/><path fill="#ffffff" d="M 558.035156 39.054688 C 558.003906 39.054688 557.980469 39.054688 557.949219 39.046875 C 557.761719 39 557.644531 38.804688 557.691406 38.613281 C 557.699219 38.589844 557.808594 38.109375 558.140625 37.429688 C 558.226562 37.253906 558.4375 37.171875 558.609375 37.261719 C 558.78125 37.347656 558.859375 37.566406 558.773438 37.742188 C 558.484375 38.351562 558.382812 38.78125 558.382812 38.78125 C 558.34375 38.941406 558.195312 39.054688 558.035156 39.054688 Z M 558.035156 39.054688 " fill-opacity="1" fill-rule="nonzero"/></svg>